HIERARCHY
ROOT Hips
{
	OFFSET -3.958830 18.904000 13.208200
	CHANNELS 6 Xposition Yposition Zposition Zrotation Yrotation Xrotation 
	JOINT LHipJoint
	{
		OFFSET 0.000000 0.000000 0.000000
		CHANNELS 3 Zrotation Yrotation Xrotation
		JOINT LeftUpLeg
		{
			OFFSET 1.800000 -1.400000 0.085000
			CHANNELS 3 Zrotation Yrotation Xrotation
			JOINT LeftLeg
			{
				OFFSET 2.215000 -6.000000 0.000000
				CHANNELS 3 Zrotation Yrotation Xrotation
				JOINT LeftFoot
				{
					OFFSET 2.500000 -6.900000 0.000000
					CHANNELS 3 Zrotation Yrotation Xrotation
					JOINT LeftToeBase
					{
						OFFSET 0.200000 -0.500000 1.950000
						CHANNELS 3 Zrotation Yrotation Xrotation
						End Site
						{
							OFFSET 0.000000 0.000000 0.000000
						}
					}
				}
			}
		}
	}
	JOINT RHipJoint
	{
		OFFSET 0.000000 0.000000 0.000000
		CHANNELS 3 Zrotation Yrotation Xrotation
		JOINT RightUpLeg
		{
			OFFSET -1.800000 -1.400000 0.085000
			CHANNELS 3 Zrotation Yrotation Xrotation
			JOINT RightLeg
			{
				OFFSET -2.215000 -6.000000 0.000000
				CHANNELS 3 Zrotation Yrotation Xrotation
				JOINT RightFoot
				{
					OFFSET -2.500000 -6.900000 0.000000
					CHANNELS 3 Zrotation Yrotation Xrotation
					JOINT RightToeBase
					{
						OFFSET -0.200000 -0.500000 1.950000
						CHANNELS 3 Zrotation Yrotation Xrotation
						End Site
						{
							OFFSET 0.000000 0.000000 0.000000
						}
					}
				}
			}
		}
	}
	JOINT LowerBack
	{
		OFFSET 0.000000 0.000000 0.000000
		CHANNELS 3 Zrotation Yrotation Xrotation
		JOINT Spine
		{
			OFFSET -0.087000 1.940000 -0.288900
			CHANNELS 3 Zrotation Yrotation Xrotation
			JOINT Spine1
			{
				OFFSET 0.000000 1.950000 0.060000
				CHANNELS 3 Zrotation Yrotation Xrotation
				JOINT Neck
				{
					OFFSET 0.000000 0.000000 0.000000
					CHANNELS 3 Zrotation Yrotation Xrotation
					JOINT Neck1
					{
						OFFSET 0.000000 1.600000 0.340000
						CHANNELS 3 Zrotation Yrotation Xrotation
						JOINT Head
						{
							OFFSET 0.000000 1.667000 -0.240000
							CHANNELS 3 Zrotation Yrotation Xrotation
							End Site
							{
								OFFSET 0.000000 0.000000 0.000000
							}
						}
					}
				}
				JOINT LeftShoulder
				{
					OFFSET 0.000000 0.000000 0.000000
					CHANNELS 3 Zrotation Yrotation Xrotation
					JOINT LeftArm
					{
						OFFSET 2.700000 1.550000 -0.730000
						CHANNELS 3 Zrotation Yrotation Xrotation
						JOINT LeftForeArm
						{
							OFFSET 5.450000 0.000000 0.000000
							CHANNELS 3 Zrotation Yrotation Xrotation
							JOINT LeftHand
							{
								OFFSET 3.450000 0.000000 0.000000
								CHANNELS 3 Zrotation Yrotation Xrotation
								JOINT LeftHandIndex1
								{
									OFFSET 0.750000 0.000000 0.000000
									CHANNELS 3 Zrotation Yrotation Xrotation
									End Site
									{
										OFFSET 0.000000 0.000000 0.000000
									}
								}
							}
						}
					}
				}
				JOINT RightShoulder
				{
					OFFSET 0.000000 0.000000 0.000000
					CHANNELS 3 Zrotation Yrotation Xrotation
					JOINT RightArm
					{
						OFFSET -2.700000 1.550000 -0.730000
						CHANNELS 3 Zrotation Yrotation Xrotation
						JOINT RightForeArm
						{
							OFFSET -5.450000 0.000000 0.000000
							CHANNELS 3 Zrotation Yrotation Xrotation
							JOINT RightHand
							{
								OFFSET -3.450000 0.000000 0.000000
								CHANNELS 3 Zrotation Yrotation Xrotation
								JOINT RightHandIndex1
								{
									OFFSET -0.750000 0.000000 0.000000
									CHANNELS 3 Zrotation Yrotation Xrotation
									End Site
									{
										OFFSET 0.000000 0.000000 0.000000
									}
								}
							}
						}
					}
				}
			}
		}
	}
}
MOTION
Frames: 4
Frame Time: 0.016667
-0.132870 16.343140 -1.672740 -3.581057 37.542341 5.073960 -15.241642 12.319661 3.046230 6.823014 -3.104934 -24.627775 -5.857153 4.071082 7.807219 -0.769958 3.186679 3.616967 0.237720 -0.019120 0.200580 18.287959 -11.010461 2.683710 -3.241465 0.718003 -11.896466 7.519290 -4.330820 8.107527 0.006131 -3.522593 3.230044 0.226810 0.509740 0.146470 -4.155488 -0.218848 -6.982624 3.429801 4.484172 3.227966 4.540370 3.978898 5.611954 -3.923049 -3.088947 -9.084394 -4.259662 1.145924 19.713042 -2.531640 0.730570 -3.945150 -10.833128 -8.786911 5.179183 -46.266079 -4.624883 -3.293584 -49.975685 -34.387170 11.670971 -3.969453 3.378811 0.155620 0.381270 -0.321830 0.153970 19.219913 13.181644 4.578852 60.859351 7.066163 -2.712820 0.312786 7.382772 -1.036645 2.316462 -1.561705 -0.349210 0.259930 0.030180 -0.131860 
-0.126270 16.340250 -1.669280 -3.585475 37.431920 5.275859 -15.248174 12.336776 3.059450 6.746908 -3.123080 -24.626049 -5.800538 4.001604 7.440864 -0.768268 3.163403 3.627722 0.226930 -0.030040 0.186650 18.281788 -10.975071 2.681261 -3.335887 0.737570 -12.008156 7.714787 -4.340157 8.029608 0.012247 -3.506052 3.237929 0.219680 0.514750 0.136130 -4.124980 -0.314343 -6.981771 3.176026 4.466250 3.212033 4.844988 3.965507 5.293284 -4.166315 -3.416873 -8.924173 -4.840978 1.239081 19.686436 -2.180770 0.422440 -4.044170 -10.090566 -7.743912 5.049060 -47.468439 -4.613446 -3.147528 -49.951943 -34.398462 11.742980 -3.952739 3.380174 0.158820 0.372580 -0.326050 0.152010 18.965389 12.354656 4.352367 61.042369 6.745529 -3.118004 0.480854 8.272307 -1.120589 2.314090 -1.541221 -0.353500 0.270270 0.039110 -0.126660 
-0.114580 16.334380 -1.663180 -3.554589 37.270657 5.659422 -15.268629 12.392654 3.089704 6.592659 -3.164632 -24.708855 -5.736055 3.924725 7.035886 -0.760939 3.135500 3.637405 0.215020 -0.042940 0.166340 18.262182 -10.903565 2.666223 -3.323841 0.784823 -12.297222 7.695316 -4.291156 8.040349 0.025299 -3.448491 3.253073 0.208690 0.517170 0.126490 -4.045872 -0.547992 -6.970574 2.565000 4.381190 3.188973 5.604060 3.878352 4.660965 -4.690997 -4.128428 -8.563343 -6.115598 1.429583 19.595567 -1.736690 -0.109930 -4.177930 -8.748883 -5.591186 4.751345 -49.811440 -4.703560 -2.741830 -49.689583 -34.113947 11.720906 -3.916912 3.398474 0.162330 0.355620 -0.329320 0.150200 18.682646 10.680461 3.902549 61.077195 6.050720 -3.951313 0.992535 10.270356 -1.284623 2.309015 -1.515282 -0.353190 0.276320 0.050380 -0.116040 
-0.096420 16.328220 -1.653730 -3.640002 37.123790 6.121240 -15.288373 12.449493 3.131401 6.536970 -3.220433 -24.888646 -5.775437 3.851279 6.515789 -0.756881 3.142497 3.650358 0.201790 -0.070260 0.141330 18.247028 -10.814510 2.639646 -3.173624 0.869085 -12.714086 7.594444 -4.239800 8.226379 0.047254 -3.388083 3.280178 0.195570 0.545870 0.123090 -3.975438 -0.821795 -6.950612 2.180431 4.172306 3.070051 6.132940 3.739631 3.742244 -5.264371 -5.038761 -8.003035 -7.735048 1.912462 19.251511 -1.222160 -0.654960 -3.974120 -7.396950 -2.559960 4.314289 -52.433477 -4.565475 -2.145140 -49.019419 -33.753246 11.657888 -3.889795 3.414031 0.163960 0.354410 -0.346780 0.161730 18.449755 8.243369 3.261107 61.054583 5.084853 -5.056905 2.186585 13.395433 -1.441997 2.284319 -1.493148 -0.363120 0.291840 0.062500 -0.103040 
